<svg
   width="78.316666mm"
   height="24.077084mm"
   viewBox="0 0 78.316666 24.077084"
   version="1.1"
   id="svg5"
   xml:space="preserve"
   xmlns="http://www.w3.org/2000/svg"
   xmlns:svg="http://www.w3.org/2000/svg"><defs
     id="defs2" /><g
     id="layer1"
     transform="translate(-69.500206,-107.15658)"
     style="display:inline"><path
       id="path2368"
       style="display:inline;fill:#000000;stroke:none;stroke-width:0.264583px;stroke-linecap:butt;stroke-linejoin:miter;stroke-opacity:1"
       d="m 134.88743,108.53582 -0.44442,0.67852 h -0.5612 l -1.21595,2.40863 h -0.21032 v -0.53795 h -3.43804 l -0.008,1.25109 -5.6627,0.015 -0.0238,12.98784 7.4998,-0.0579 c 0.52702,0.44126 1.0541,0.88276 1.64176,1.22524 0.58766,0.34247 1.23645,0.58635 1.97766,0.75138 0.74119,0.16506 1.57593,0.25105 2.33577,0.24805 0.75984,-0.003 1.4436,-0.0964 2.07429,-0.26407 0.63069,-0.16767 1.2072,-0.40952 1.70274,-0.74879 0.49555,-0.33928 0.90993,-0.77582 1.32447,-1.21233 h 3.53156 v -12.72222 h -4.74751 l -1.40301,-3.39101 h -0.58498 l -0.32711,-0.63149 z m -57.700871,4.16719 c -0.327423,0.004 -0.615933,0.023 -0.871265,0.062 -0.255331,0.039 -0.477107,0.0975 -0.726571,0.17157 -0.249462,0.074 -0.526586,0.16387 -0.842326,0.29249 -0.315739,0.12863 -0.670164,0.29599 -0.976167,0.47335 -0.306004,0.17735 -0.563326,0.36439 -0.777731,0.55346 -0.214404,0.18906 -0.385718,0.38025 -0.576709,0.60048 -0.19099,0.22022 -0.401574,0.46968 -0.573091,0.72502 -0.171516,0.25534 -0.304115,0.51649 -0.419096,0.8108 -0.114981,0.29431 -0.212403,0.62167 -0.280603,0.93741 -0.0682,0.31574 -0.10702,0.61988 -0.12454,0.95705 -0.01755,0.33717 -0.01393,0.70755 0.0036,1.0759 0.01755,0.36834 0.04875,0.73462 0.103353,1.04645 0.0546,0.31183 0.132846,0.56913 0.236161,0.83613 0.103316,0.26699 0.231772,0.54354 0.364319,0.78909 0.132548,0.24555 0.268768,0.45972 0.440283,0.70332 0.171515,0.2436 0.378081,0.5166 0.588595,0.73484 0.210512,0.21824 0.425323,0.38217 0.647505,0.52245 0.222182,0.14029 0.451692,0.25721 0.673861,0.37414 0.22217,0.11694 0.436652,0.23389 0.691948,0.32349 0.255296,0.0896 0.551599,0.15199 0.904337,0.21239 0.352738,0.0604 0.76223,0.1186 1.153935,0.1478 0.391704,0.0293 0.765498,0.0292 1.14825,-0.0103 0.382753,-0.0395 0.774104,-0.11797 1.122929,-0.20567 0.348826,-0.0877 0.655179,-0.18456 0.911572,-0.29714 0.256395,-0.11258 0.463264,-0.24087 0.671794,-0.36949 0.208529,-0.12863 0.418763,-0.25732 0.664042,-0.4656 0.245279,-0.20827 0.525476,-0.49647 0.805636,-0.78445 l 0.130224,-0.14159 -1.5906,-1.66037 c -0.155907,0.16175 -0.311802,0.32374 -0.485242,0.48938 -0.17344,0.16565 -0.364168,0.3349 -0.582393,0.48007 -0.218226,0.14517 -0.463753,0.26595 -0.705384,0.36535 -0.241632,0.0994 -0.47945,0.17748 -0.758093,0.22428 -0.278643,0.0467 -0.598298,0.0627 -0.91984,0.0527 -0.321543,-0.01 -0.644772,-0.0447 -0.94878,-0.0992 -0.304008,-0.0546 -0.588583,-0.12892 -0.818554,-0.23409 -0.229972,-0.10516 -0.405563,-0.24124 -0.591696,-0.4098 -0.186131,-0.16856 -0.382999,-0.36967 -0.546736,-0.56844 -0.163737,-0.19876 -0.294095,-0.39508 -0.406177,-0.58704 -0.112081,-0.19196 -0.206015,-0.37928 -0.272335,-0.63459 -0.06632,-0.25531 -0.105157,-0.57867 -0.126607,-0.89245 -0.02145,-0.31379 -0.02531,-0.61795 0,-0.90641 0.02531,-0.28846 0.07969,-0.56132 0.175183,-0.82837 0.09549,-0.26705 0.232196,-0.5282 0.40566,-0.78548 0.173463,-0.25729 0.384116,-0.51072 0.668693,-0.75241 0.284576,-0.24169 0.64267,-0.47156 0.964282,-0.62942 0.321614,-0.15786 0.606387,-0.24362 0.926042,-0.29042 0.319654,-0.0468 0.674118,-0.0547 1.036629,-0.0176 0.362512,0.0371 0.732946,0.11919 1.068152,0.25373 0.335205,0.13453 0.635625,0.32151 0.933793,0.52762 0.298168,0.20611 0.593645,0.4312 0.889868,0.65629 l 0.1757,0.15451 1.528589,-1.5813 h 5.17e-4 l 0.0057,-0.006 c -0.03605,-0.0516 -0.0722,-0.10283 -0.154512,-0.18913 -0.08231,-0.0863 -0.21055,-0.20698 -0.376205,-0.36484 -0.165655,-0.15785 -0.368794,-0.35274 -0.587044,-0.52038 -0.218251,-0.16764 -0.451918,-0.30822 -0.703316,-0.44855 -0.251398,-0.14033 -0.520451,-0.28043 -0.760161,-0.37983 -0.239709,-0.0994 -0.449777,-0.15786 -0.69143,-0.22996 -0.241653,-0.0721 -0.514943,-0.1579 -0.834575,-0.2067 -0.319631,-0.0486 -0.685951,-0.0603 -1.013374,-0.0563 z m 6.814054,0.0672 v 0.12868 h 5.17e-4 z m 5.17e-4,0.12868 0.03462,12.19977 2.468066,-0.0165 0.03307,-5.24206 3.832324,0.0165 0.03307,5.15938 2.596224,0.0496 -0.06615,-12.15429 H 90.35268 v 4.49791 l -3.815788,0.0331 -0.01654,-4.53099 z m 52.58439,-0.10232 c 0.76983,2e-5 1.58812,0.0971 2.25464,0.3116 0.66652,0.21446 1.1812,0.54592 1.73271,0.98444 0.55151,0.43852 1.13979,0.98436 1.55288,1.56321 0.41309,0.57886 0.65106,1.19086 0.82837,1.88464 0.1773,0.69378 0.29434,1.46933 0.31574,2.11047 0.0214,0.64114 -0.0528,1.14773 -0.19895,1.68362 -0.14617,0.53589 -0.36478,1.10111 -0.63149,1.63762 -0.26671,0.53651 -0.58152,1.04439 -0.9927,1.48673 -0.41117,0.44235 -0.91835,0.81885 -1.55546,1.15135 -0.63711,0.3325 -1.40448,0.62074 -2.17816,0.76016 -0.77368,0.1394 -1.55357,0.12993 -2.24586,0.0408 -0.69229,-0.0891 -1.29646,-0.2578 -1.90428,-0.52917 -0.60783,-0.27137 -1.21924,-0.6453 -1.70739,-1.08004 -0.48815,-0.43473 -0.85338,-0.93051 -1.14205,-1.42988 -0.28867,-0.49937 -0.50075,-1.00251 -0.68109,-1.64383 -0.18033,-0.64132 -0.3288,-1.42058 -0.3483,-2.14561 -0.0195,-0.72502 0.0898,-1.39532 0.26717,-1.94303 0.17735,-0.5477 0.42287,-0.97241 0.7152,-1.4304 0.29234,-0.458 0.63161,-0.94958 1.01751,-1.39785 0.3859,-0.44827 0.81824,-0.85355 1.27434,-1.1498 0.4561,-0.29626 0.93553,-0.48301 1.53582,-0.62529 0.60029,-0.14233 1.32152,-0.23979 2.09135,-0.23977 z m -37.815783,0.0155 -4.464843,12.30312 h 2.579687 l 3.009635,-8.45013 3.009634,8.38399 h 2.48047 l -4.31602,-12.23698 z m 8.251693,0.0496 2.19935,12.27005 h 2.26549 l 2.79467,-8.46667 2.77812,8.38399 h 2.24896 l 2.1332,-12.17084 h -2.3151 l -1.35599,7.30912 -2.48047,-7.29258 h -2.10013 l -2.57969,7.35873 -1.24023,-7.3918 z m 28.46286,0.76119 -3.69538,10.59367 h 2.04639 l 2.72438,-7.5768 1.39164,3.83543 h 1.94097 l -2.43189,-6.8523 z m 3.08664,8.9917 0.51469,1.45004 h 2.11615 l -0.57257,-1.45004 z m -9.24905,3.05201 -1.22215,3.83543 0.64906,0.006 0.88883,-2.71302 0.93534,2.70113 h 0.60824 l -1.17513,-3.82974 z m -9.70535,0.11679 0.0176,3.74809 h 1.81849 v -0.57309 h -1.23972 v -1.18701 h 1.22215 v -0.49092 h -1.23403 v -0.91209 l 1.29242,-0.0114 v -0.56741 z m 2.39727,0.005 v 0.71469 c 0.48949,0.005 0.97905,0.01 1.29966,0.0682 0.32062,0.0586 0.4725,0.17081 0.59893,0.35657 0.12642,0.18576 0.22745,0.44463 0.26045,0.7028 0.0331,0.25817 -0.002,0.51565 -0.11576,0.7338 -0.11399,0.21816 -0.30714,0.39751 -0.57206,0.48421 -0.26492,0.0867 -0.60232,0.0809 -0.93947,0.0749 v -1.54357 h -0.52607 v 2.16317 c 0.60804,0.0137 1.21639,0.0273 1.64796,-0.0429 0.43157,-0.0702 0.6868,-0.22403 0.85628,-0.42271 0.16949,-0.19868 0.25334,-0.4421 0.31574,-0.67593 0.0624,-0.23383 0.10319,-0.45819 0.0982,-0.69298 -0.005,-0.23479 -0.0554,-0.48031 -0.11576,-0.68006 -0.0604,-0.19975 -0.1301,-0.35351 -0.2222,-0.49145 -0.0921,-0.13795 -0.20628,-0.25997 -0.35089,-0.38034 -0.14461,-0.12038 -0.32004,-0.23904 -0.69763,-0.30024 -0.37759,-0.0611 -0.95745,-0.0652 -1.53737,-0.0682 z m 3.36723,0.002 v 0.59066 h 0.68988 v 2.57246 h -0.68419 l 0.006,0.60771 1.95285,0.0176 0.006,-0.6196 h -0.53176 v -2.57865 h 0.53744 v -0.59015 z m -7.76955,0.0873 -0.85214,2.4226 -0.83768,-2.39314 h -0.76016 l -0.50281,3.68918 h 0.65474 l 0.3452,-2.15749 0.80098,2.12752 h 0.56689 l 0.80099,-2.12184 0.44442,2.15749 0.64905,0.006 -0.61391,-3.73053 z" /></g></svg>
